<?xml version="1.0" encoding="utf-8"?>
<!-- Generator: Adobe Illustrator 21.1.0, SVG Export Plug-In . SVG Version: 6.00 Build 0)  -->
<svg version="1.1" id="圖層_1" xmlns="http://www.w3.org/2000/svg" xmlns:xlink="http://www.w3.org/1999/xlink" x="0px" y="0px"
	 viewBox="0 0 1026 512" style="enable-background:new 0 0 1026 512;" xml:space="preserve">
<style type="text/css">
	.st0{fill:#25AE88;}
	.st1{fill:#FFFFFF;}
</style>
<circle class="st0" cx="256" cy="256" r="256"/>
<path class="st1" d="M212.5,384.3L102.1,276.8l68.7-66.8l41.8,40.7l138.8-135l68.7,66.8L212.5,384.3z"/>
<g>
	<path class="st1" d="M667.1,303.8c15.8,0,18.1-3.3,20.5-25.1c5.8,3.6,16.6,7.6,23.2,8.8c-3.9,30.4-12,39.1-42.4,39.1h-48.9
		c-33.4,0-43.4-6.8-43.4-33.4v-70.6h23.8v18.9h65.8v-29.2h-94.8v-22.7h118.7v81.5h-24V264h-65.8v29c0,9.8,2.2,10.7,19.7,10.7
		L667.1,303.8L667.1,303.8z"/>
	<path class="st1" d="M841.3,308.2c4.4,0,5.2-2.5,6-18.1c4.6,3.6,14.4,7.3,20.5,8.7c-2.4,23.8-8.2,30.3-24.3,30.3H826
		c-20.5,0-25.2-6.8-25.2-26.5v-25.4H783c-1.7,29.2-8.5,45.9-52,53.9c-1.7-5.8-7.4-15-11.8-19.7c35.3-5,39.3-14.2,40.4-34.2h-37.1
		v-21.4h142.1v21.4h-40.4v25.2c0,5.4,0.6,5.8,5.5,5.8L841.3,308.2L841.3,308.2z M747.5,238.3h-22.9v-41.9h56.1
		c-1.3-3.6-2.7-7.1-4.1-10.3l23.7-6.8c2.8,5,5.7,11.5,7.6,17h53.8v41.9h-24v-20h-90.2L747.5,238.3L747.5,238.3z M752.7,247.8v-21
		h79.6v21H752.7z"/>
	<path class="st1" d="M1016.7,237.2c-6.6,20.7-15.8,39.3-27.1,55.2c3.5,9,7.4,14.2,11.2,14.2c3.2,0,5-7.9,5.8-27.1
		c5.2,5.4,13.2,10.7,19.4,13.1c-3.5,30.8-10.9,37.4-27.1,37.4c-10.4,0-18.9-6.8-25.7-18.1c-7.1,7.1-15,13.4-23.3,18.8
		c-3.3-4.9-11.7-14.5-16.6-18.9c11.4-6.1,21.4-14.2,30-23.8c-5.4-17.7-8.7-39.4-10.6-62.1h-41v15h38.6c0,0-0.2,5.5-0.2,8
		c-0.5,32.2-1.3,46.7-5,51.7c-3.5,4.6-7.1,6.2-11.8,7.1c-4.3,0.8-10.9,0.9-18.1,0.9c-0.3-6.5-2.7-15.1-5.8-20.8
		c-2.2,16.7-6.6,33.6-14.7,45.7c-3.9-4.6-14.4-13.1-19.6-15.8c11.7-18.6,12.5-46.5,12.5-67.2v-47.3h63.7c-0.3-7.3-0.5-14.5-0.5-21.8
		h24.1c-0.2,7.3-0.2,14.5,0.2,21.8h17.8c-4.9-3.8-10.9-7.9-15.8-10.9l13.9-13.7c8,4.3,19.1,11.2,24.6,16.4l-7.9,8.2h16.7v22.6h-48.1
		c1.1,12.9,2.8,25.4,5,36.3c4.9-9.3,9-19.4,12.1-30.3L1016.7,237.2z M911.5,261.5c-0.3,8-0.9,16.7-2.1,25.5
		c4.7,0.5,8.8,0.6,11.4,0.6c2,0,3.5-0.5,4.7-2c1.3-1.9,1.9-8.4,2.2-24.1H911.5z"/>
</g>
</svg>
