<?xml version="1.0" encoding="utf-8"?>
<!-- Generator: Adobe Illustrator 21.1.0, SVG Export Plug-In . SVG Version: 6.00 Build 0)  -->
<svg version="1.1" id="圖層_1" xmlns="http://www.w3.org/2000/svg" xmlns:xlink="http://www.w3.org/1999/xlink" x="0px" y="0px"
	 viewBox="0 0 1026 512" style="enable-background:new 0 0 1026 512;" xml:space="preserve">
<style type="text/css">
	.st0{fill:#FF7761;}
	.st1{fill:#FFFFFF;}
</style>
<path class="st0" d="M512,256c0,141.4-114.6,256-256,256S0,397.4,0,256S114.6,0,256,0S512,114.6,512,256z"/>
<path class="st1" d="M96,208h320v96H96V208z"/>
<g>
	<path class="st1" d="M673.6,300.8c15.8,0,18.1-3.3,20.5-25.1c5.8,3.6,16.6,7.6,23.2,8.8c-3.9,30.4-12,39.1-42.4,39.1h-48.9
		c-33.4,0-43.4-6.8-43.4-33.4v-70.6h23.8v18.9h65.8v-29.2h-94.8v-22.7h118.7v81.5h-24V261h-65.8v29c0,9.8,2.2,10.7,19.7,10.7H673.6z
		"/>
	<path class="st1" d="M795.1,259.8c2,5.7,4.4,13.2,5.4,17.7l-6.6,2h2.7v15.9c0,12.9-3.2,25.2-23.5,32c-1.7-3.5-6.5-9.5-9.6-12.1
		c7.1-2.1,11.5-4.7,14.2-7.9h-16.2v-25.1h13.6v12.9h6.5V295v-15.5h7.6c-0.2-0.9-0.3-2-0.6-3.2c-19.9,2.7-23.7,3.6-26,4.7v-0.2
		c-0.6-2.5-2.5-8.7-3.9-12c2.5-0.3,5.2-1.9,8.4-4.3c1.1-0.8,2.8-2.2,5-4.3c-5.7,0.6-7.7,1.1-9,1.7V262c-0.8-2.8-2.8-9.1-4.4-12.5
		c1.7-0.5,3.6-1.3,5.2-2.8c1.3-1.1,5.2-4.9,8.2-9.6h-17.5v91h-21.8V183.9h63.1v53.1h-15.8l6.2,3.3c-2.8,3.6-6.3,7.3-9.9,10.3l6-0.3
		c1.9-2,3.8-4.4,5.5-6.8l10.4,7.6c-3.5,3.6-7.4,7.4-11.4,10.9L795.1,259.8z M754.3,198.9v4.9h19.9v-4.9H754.3z M754.3,222.1h19.9
		v-4.9h-19.9V222.1z M785.8,267l-1.1-3.6c-1.7,1.4-3.5,2.8-5.2,4.3L785.8,267z M868,302.7c0,10.3-1.4,16.4-7.4,20.2
		c-6,3.8-13.6,4.3-24.4,4.3c-0.5-4.3-1.9-10.3-3.6-15.6h-8.4v-4.1h-6.5v18.9h-15.5v-46.8h1.6c-0.8-3-2.4-7.6-3.5-10.3
		c2.5-0.5,5.2-1.9,8.4-4.4c0.9-0.8,2.8-2.2,5-4.3c-5.8,0.6-8,1.1-9.3,1.7c-0.8-2.8-2.8-9.1-4.4-12.5c1.7-0.5,3.6-1.3,5.2-2.8
		c1.3-1.1,5.4-5,8.4-9.9h-9.8v-53.1H868V302.7z M843.2,305.2c2.1,0,2.7-0.8,2.7-2.8v-65.3h-25.1l6.8,3.6c-2.8,3.5-6.1,7.1-9.6,10.1
		l5.7-0.3c2.1-2.2,4.1-4.7,5.8-7.3l10.6,7.6c-3.6,3.9-7.6,7.7-11.8,11.4l8.4-2.5c2.5,5.7,5.4,13.2,6.5,17.7l-10.9,3.9
		c-0.3-1.4-0.8-3-1.3-4.9c-10.7,1.4-16.9,2.4-20.7,3.2h7.4v15.8h6.5v-12.9h14.2v22.9H843.2z M826.5,263.7c-1.7,1.4-3.3,2.7-5,4.1
		l6.3-0.6L826.5,263.7z M825.6,198.9v4.9h20.3v-4.9H825.6z M825.6,222.1h20.3v-4.9h-20.3V222.1z"/>
	<path class="st1" d="M912.9,242.9v85.2h-22.7V183.9H953v59H912.9z M912.9,200.2v5.4h18.6v-5.4H912.9z M931.5,226.8v-6.2h-18.6v6.2
		H931.5z M1026,301.6c0,12.1-2.4,18.5-9.6,22.2c-7.4,3.8-17.7,4.3-32.6,4.3c-0.6-5.4-3.3-13.9-6-20c-0.5,7.1-2,11.2-7.3,14
		c-5.8,3-12.9,3.3-22.2,3.3c-0.9-5.5-3.9-13.7-6.6-18.8c5.2,0.2,11.2,0.2,13.1,0.2c1.9,0,2.5-0.5,2.5-2.2v-14.8
		c-8.8,10.3-19.4,19.4-29.8,25.4c-3.3-4.9-9.8-12.5-14.2-16.2c12-5.4,24.6-14.4,33.3-24h-27.1v-18.3h37.8v-11h20.5v11h18.5v18.3
		h-18.5v30c8.2,0.5,18,0.3,21,0.3c3,0,4.1-1.1,4.1-3.9v-57.9h-41.2v-59.5h64.3V301.6z M983.4,200.2v5.4h19.4v-5.4H983.4z
		 M1002.8,227.3v-6.6h-19.4v6.6H1002.8z"/>
</g>
</svg>
