<svg id="Layer_1" enable-background="new 0 0 256 256" viewBox="0 0 256 256" xmlns="http://www.w3.org/2000/svg"><path d="m47.398 26.307c-.974 11.564-13.025 13.389-13.025 13.389 10.347.487 12.925 14.059 12.925 14.059.222-9.676 13.322-14.201 13.322-14.201-9.814-.587-13.222-13.247-13.222-13.247z" fill="#d6df58"/><path d="m60.709 38.056c-8.605-.514-11.832-12.024-11.863-12.14-.191-.703-.858-1.167-1.583-1.102-.725.066-1.298.642-1.359 1.367-.86 10.215-11.314 11.963-11.755 12.032-.763.115-1.313.79-1.273 1.561.04.77.657 1.384 1.427 1.421 9.028.425 11.499 12.719 11.523 12.843.137.711.759 1.217 1.472 1.217.042 0 .084-.001.126-.005.764-.064 1.357-.693 1.375-1.459.195-8.509 12.192-12.777 12.313-12.819.675-.235 1.092-.915.994-1.623-.099-.709-.683-1.25-1.397-1.293zm-13.566 10.346c-1.357-3.13-3.709-6.907-7.587-8.876 2.931-1.405 6.409-3.913 8.202-8.273 1.551 3.071 4.199 6.88 8.334 8.722-3.007 1.64-6.923 4.406-8.949 8.427z" fill="#3a312a"/><path d="m25.699 43.288c-.689 8.179-9.212 9.471-9.212 9.471 7.318.344 9.142 9.944 9.142 9.944.156-6.844 9.422-10.045 9.422-10.045-6.941-.416-9.352-9.37-9.352-9.37z" fill="#d6df58"/><path d="m35.14 51.16c-5.766-.345-7.972-8.185-7.993-8.264-.19-.702-.857-1.166-1.582-1.102-.726.065-1.299.642-1.36 1.368-.579 6.871-7.646 8.066-7.942 8.113-.763.115-1.313.79-1.273 1.56s.657 1.384 1.427 1.421c6.035.284 7.724 8.644 7.739 8.726.135.712.759 1.22 1.473 1.22.041 0 .082-.001.125-.005.765-.064 1.358-.694 1.376-1.461.13-5.709 8.332-8.634 8.412-8.662.677-.234 1.094-.913.996-1.622-.098-.708-.683-1.249-1.398-1.292zm-9.584 6.795c-.924-1.886-2.34-3.947-4.447-5.28 1.856-1.041 3.697-2.63 4.871-4.916 1.057 1.874 2.654 3.954 4.941 5.223-1.85 1.101-3.989 2.741-5.365 4.973z" fill="#3a312a"/><path d="m25.699 16.63c-.689 8.179-9.212 9.471-9.212 9.471 7.318.344 9.142 9.944 9.142 9.944.156-6.844 9.422-10.045 9.422-10.045-6.941-.416-9.352-9.37-9.352-9.37z" fill="#d6df58"/><path d="m35.141 24.502c-5.766-.345-7.972-8.186-7.994-8.265-.19-.702-.857-1.167-1.582-1.102-.726.065-1.299.642-1.36 1.368-.579 6.871-7.646 8.067-7.942 8.114-.763.115-1.313.79-1.273 1.561.04.77.657 1.384 1.428 1.421 6.035.284 7.723 8.644 7.739 8.726.135.713.759 1.22 1.473 1.22.041 0 .082-.001.125-.005.765-.063 1.358-.694 1.376-1.461.13-5.709 8.331-8.634 8.412-8.662.676-.234 1.094-.913.996-1.622-.099-.708-.684-1.25-1.398-1.293zm-9.585 6.795c-.924-1.885-2.34-3.947-4.447-5.28 1.856-1.041 3.697-2.63 4.871-4.916 1.057 1.874 2.654 3.954 4.941 5.224-1.85 1.101-3.989 2.74-5.365 4.972z" fill="#3a312a"/><ellipse cx="133.763" cy="133.62" fill="#d6df58" rx="67.813" ry="67.813" transform="matrix(.707 -.707 .707 .707 -55.305 133.721)"/><path d="m133.763 64.307c-38.219 0-69.312 31.094-69.312 69.313s31.093 69.313 69.312 69.313 69.313-31.094 69.313-69.313c0-38.22-31.094-69.313-69.313-69.313zm0 135.626c-36.565 0-66.312-29.748-66.312-66.313s29.747-66.313 66.312-66.313 66.313 29.748 66.313 66.313-29.748 66.313-66.313 66.313z" fill="#3a312a"/><path d="m57.347 60.523 9.121 9.121 10.092 10.092 7.632 7.632c12.378-13.26 30.001-21.561 49.571-21.561v-37.937c-30.046 0-57.164 12.532-76.416 32.653z" fill="#8ac5dc"/><path d="m133.763 26.37c-29.543 0-57.067 11.761-77.5 33.116-.563.589-.553 1.521.023 2.098l9.121 9.121c.586.586 1.535.586 2.121 0 .586-.585.586-1.536 0-2.121l-8.076-8.076c19.403-19.735 45.153-30.742 72.811-31.126v34.943c-18.073.397-35.445 7.946-48.096 20.899l-6.546-6.546c-.586-.586-1.535-.586-2.121 0-.586.585-.586 1.536 0 2.121l7.632 7.632c.281.282.663.44 1.061.44h.026c.407-.007.793-.179 1.071-.477 12.508-13.4 30.176-21.085 48.474-21.085.829 0 1.5-.671 1.5-1.5v-37.939c-.001-.829-.672-1.5-1.501-1.5z" fill="#3a312a"/><path d="m84.192 87.368-7.632-7.632-10.092-10.093-9.121-9.121c-18.17 18.99-29.333 44.739-29.333 73.097 0 1.111.023 2.217.057 3.319h37.964c-.053-1.1-.084-2.206-.084-3.319 0-17.881 6.932-34.135 18.241-46.251z" fill="#87796f"/><path d="m85.253 86.308-7.632-7.632c-.586-.586-1.535-.586-2.121 0-.586.585-.586 1.536 0 2.121l6.618 6.618c-11.404 12.733-17.667 29.083-17.667 46.205 0 .597.008 1.2.025 1.819h-34.944c-.012-.605-.019-1.211-.019-1.819 0-26.467 9.884-51.599 27.865-70.944l8.028 8.028c.586.586 1.535.586 2.121 0 .586-.585.586-1.536 0-2.121l-9.121-9.121c-.285-.286-.677-.437-1.077-.439-.403.004-.788.171-1.067.463-19.184 20.051-29.749 46.378-29.749 74.134 0 1.127.023 2.248.058 3.366.025.81.689 1.454 1.5 1.454h37.964c.411 0 .803-.168 1.086-.465s.432-.697.412-1.107c-.055-1.144-.082-2.206-.082-3.247 0-16.843 6.335-32.905 17.838-45.228.551-.592.536-1.514-.036-2.085z" fill="#3a312a"/><path d="m133.763 27.87v37.937c19.57 0 37.193 8.301 49.571 21.561l26.845-26.845c-19.251-20.121-46.369-32.653-76.416-32.653z" fill="#87796f"/><path d="m211.264 59.485c-20.433-21.355-47.957-33.116-77.5-33.116-.829 0-1.5.671-1.5 1.5v37.937c0 .829.671 1.5 1.5 1.5 18.299 0 35.967 7.685 48.475 21.085.278.297.664.469 1.071.477h.026c.397 0 .779-.158 1.061-.44l26.845-26.846c.575-.576.585-1.507.022-2.097zm-27.905 25.737c-12.65-12.953-30.023-20.502-48.096-20.899v-34.943c27.659.385 53.409 11.392 72.812 31.126z" fill="#3a312a"/><path d="m210.18 60.523-26.845 26.845c11.309 12.116 18.242 28.37 18.242 46.252 0 1.113-.031 2.219-.084 3.319h37.964c.034-1.103.057-2.208.057-3.319-.001-28.358-11.164-54.107-29.334-73.097z" fill="#8ac5dc"/><path d="m211.264 59.485c-.279-.292-.664-.458-1.067-.463-.419.001-.792.154-1.077.439l-26.845 26.846c-.572.571-.587 1.493-.036 2.084 11.503 12.323 17.838 28.385 17.838 45.228 0 1.041-.027 2.103-.082 3.247-.02.41.129.81.412 1.107s.676.465 1.086.465h37.964c.811 0 1.475-.644 1.5-1.454.034-1.118.057-2.239.057-3.365-.001-27.755-10.566-54.083-29.75-74.134zm26.73 75.954h-34.943c.017-.619.025-1.222.025-1.819 0-17.122-6.263-33.472-17.667-46.205l24.739-24.739c17.981 19.345 27.865 44.477 27.865 70.944 0 .608-.007 1.214-.019 1.819z" fill="#3a312a"/><path d="m201.492 136.939c-.879 18.239-8.971 34.578-21.477 46.252l9.623 9.623 10.097 10.097 7.125 7.125c19.377-18.54 31.71-44.377 32.596-73.097z" fill="#87796f"/><path d="m240.533 135.895c-.282-.292-.671-.456-1.077-.456h-37.964c-.8 0-1.46.628-1.498 1.428-.834 17.302-8.293 33.364-21.002 45.227-.297.278-.469.664-.477 1.071-.007.407.152.799.44 1.086l9.623 9.624c.586.586 1.535.586 2.121 0 .586-.585.586-1.535 0-2.121l-8.537-8.538c12.258-11.954 19.577-27.749 20.746-44.777h34.991c-1.198 26.377-12.167 50.947-31.022 69.492l-6.081-6.08c-.586-.586-1.535-.586-2.121 0-.586.585-.586 1.536 0 2.121l7.125 7.125c.292.292.676.439 1.061.439.373 0 .746-.138 1.037-.416 20.446-19.564 32.187-45.893 33.059-74.135.011-.405-.141-.799-.424-1.09z" fill="#3a312a"/><path d="m66.035 136.939h-37.965c.886 28.72 13.219 54.557 32.596 73.097l26.845-26.845c-12.505-11.674-20.597-28.012-21.476-46.252z" fill="#8ac5dc"/><path d="m88.535 182.094c-12.709-11.863-20.168-27.925-21.003-45.227-.038-.799-.698-1.428-1.498-1.428h-37.964c-.406 0-.794.164-1.077.456-.283.291-.435.685-.423 1.09.872 28.243 12.612 54.571 33.059 74.135.291.278.664.416 1.037.416.384 0 .768-.147 1.061-.439l26.845-26.846c.288-.288.446-.68.439-1.086-.007-.407-.178-.793-.476-1.071zm-27.885 25.837c-18.855-18.544-29.824-43.114-31.022-69.492h34.992c1.168 17.028 8.487 32.823 20.746 44.777z" fill="#3a312a"/><path d="m199.735 202.911-10.097-10.097-9.623-9.623c-12.116 11.31-28.37 18.242-46.251 18.242v37.937c28.358 0 54.107-11.164 73.097-29.334z" fill="#8ac5dc"/><path d="m207.921 208.976-7.125-7.125c-.586-.586-1.535-.586-2.121 0-.586.585-.586 1.536 0 2.121l6.033 6.033c-18.979 17.641-43.528 27.488-69.444 27.854v-34.942c16.574-.354 32.344-6.581 44.706-17.651l8.609 8.609c.586.586 1.535.586 2.121 0 .586-.585.586-1.535 0-2.121l-9.623-9.623c-.572-.572-1.494-.586-2.084-.036-12.324 11.503-28.386 17.839-45.229 17.839-.829 0-1.5.671-1.5 1.5v37.937c0 .829.671 1.5 1.5 1.5 27.756 0 54.084-10.565 74.134-29.75.292-.279.458-.664.463-1.067.004-.405-.155-.793-.44-1.078z" fill="#3a312a"/><path d="m87.512 183.191-26.845 26.845c18.99 18.17 44.739 29.334 73.097 29.334v-37.937c-17.882-.001-34.136-6.933-46.252-18.242z" fill="#87796f"/><path d="m133.763 199.933c-16.842 0-32.904-6.335-45.228-17.839-.59-.552-1.513-.536-2.084.036l-26.845 26.846c-.286.285-.444.673-.44 1.077.004.403.171.788.463 1.067 20.05 19.184 46.378 29.75 74.134 29.75.829 0 1.5-.671 1.5-1.5v-37.937c0-.829-.671-1.5-1.5-1.5zm-1.5 37.926c-25.915-.366-50.465-10.213-69.444-27.855l24.739-24.739c12.362 11.071 28.131 17.297 44.705 17.651z" fill="#3a312a"/><path d="m171.538 132.922c3.736-3.642 1.675-9.987-3.489-10.738l-16.343-2.375c-2.05-.298-3.823-1.586-4.74-3.444l-7.309-14.809c-2.309-4.679-8.981-4.679-11.29 0l-7.309 14.809c-.917 1.858-2.689 3.146-4.74 3.444l-16.343 2.375c-5.163.75-7.225 7.096-3.489 10.738l11.826 11.527c1.484 1.446 2.161 3.53 1.811 5.572l-2.792 16.277c-.882 5.143 4.516 9.064 9.134 6.636l14.617-7.685c1.834-.964 4.025-.964 5.859 0l14.617 7.685c4.618 2.428 10.016-1.494 9.134-6.636l-2.792-16.277c-.35-2.042.327-4.126 1.811-5.572z" fill="#f16c7a"/><path d="m172.585 133.997c2.141-2.086 2.896-5.148 1.973-7.991-.924-2.843-3.335-4.876-6.293-5.306l-16.342-2.374c-1.562-.227-2.912-1.208-3.61-2.624l-7.309-14.809c-1.323-2.68-4.001-4.345-6.99-4.345-2.988 0-5.667 1.665-6.99 4.345l-7.309 14.809c-.699 1.416-2.048 2.396-3.61 2.624l-16.344 2.374c-2.958.43-5.369 2.463-6.293 5.306-.923 2.842-.168 5.904 1.973 7.991l11.826 11.527c1.13 1.102 1.646 2.688 1.379 4.245l-2.792 16.276c-.505 2.946.683 5.867 3.101 7.624 1.366.993 2.965 1.497 4.574 1.497 1.239 0 2.484-.299 3.635-.904l14.617-7.685c1.396-.735 3.066-.734 4.462 0l14.617 7.685c2.646 1.39 5.791 1.164 8.209-.593s3.606-4.678 3.101-7.624l-2.792-16.276c-.267-1.556.248-3.143 1.379-4.245zm-16.161 16.278 2.791 16.276c.316 1.84-.397 3.593-1.907 4.69-1.511 1.097-3.398 1.233-5.05.365l-14.617-7.685c-2.272-1.194-4.984-1.195-7.255 0l-14.617 7.685c-1.652.869-3.539.732-5.05-.365-1.51-1.097-2.223-2.851-1.907-4.69l2.792-16.276c.434-2.529-.405-5.109-2.242-6.9l-11.826-11.527c-1.336-1.303-1.79-3.14-1.213-4.916.577-1.775 2.024-2.995 3.871-3.264l16.343-2.375c2.539-.369 4.733-1.963 5.869-4.264l7.309-14.809c.826-1.674 2.434-2.673 4.3-2.673s3.474 1 4.299 2.673l7.309 14.809c1.136 2.301 3.33 3.896 5.869 4.264l16.342 2.375c1.848.269 3.294 1.489 3.872 3.264.577 1.775.122 3.612-1.214 4.915l-11.825 11.527c-1.838 1.792-2.677 4.372-2.243 6.901z" fill="#3a312a"/><path d="m199.993 130.34c-.02-.39-.06-.77-.08-1.16-.05-.7-.09-1.39-.16-2.08-.05-.45-.11-.9-.16-1.35-.07-.62-.15-1.25-.24-1.87-.07-.46-.15-.91-.23-1.37-.1-.61-.2-1.22-.32-1.82-.09-.44-.19-.87-.28-1.31-.14-.62-.28-1.24-.43-1.85-.1-.41-.21-.81-.32-1.21-.18-.65-.36-1.3-.55-1.94-.11-.35-.22-.7-.33-1.05-.23-.69-.46-1.38-.7-2.06-.11-.29-.21-.58-.32-.87-.28-.74-.57-1.48-.87-2.21-.1-.22-.19-.45-.29-.67-.34-.79-.69-1.57-1.06-2.35-.08-.16-.15-.32-.23-.48-.41-.83-.83-1.65-1.27-2.47-.05-.1-.1-.2-.16-.3-.47-.86-.96-1.72-1.47-2.56-.03-.05-.07-.1-.1-.16-.53-.87-1.09-1.74-1.66-2.59-.02-.02-.03-.04-.04-.06-.59-.87-1.2-1.73-1.83-2.57-.01-.01-.01-.01-.01-.01-1.85-2.47-3.87-4.8-6.03-6.99-.11-.11-.22-.22-.33-.34-.61-.6-1.23-1.18-1.86-1.76-.19-.18-.39-.37-.59-.54-.55-.5-1.12-.99-1.69-1.47-.31-.26-.63-.53-.95-.78-.47-.38-.94-.75-1.42-1.12-.47-.36-.95-.72-1.44-1.07-.34-.25-.69-.49-1.04-.74-.67-.47-1.36-.92-2.05-1.37-.18-.11-.35-.22-.53-.33-10.47-6.56-22.68-10.15-35.19-10.15-2.52 0-5.02.15-7.5.44 9.85 1.13 19.33 4.47 27.69 9.71.18.11.35.22.53.33.69.45 1.38.9 2.05 1.37.35.25.7.49 1.04.74.49.35.97.71 1.44 1.07.48.37.95.74 1.42 1.12.32.25.64.52.95.78.57.48 1.14.97 1.69 1.47.2.17.4.36.59.54.63.58 1.25 1.16 1.86 1.76.11.12.22.23.33.34 2.16 2.19 4.18 4.52 6.03 6.99 0 0 0 0 .01.01.63.84 1.24 1.7 1.83 2.57.01.02.02.04.04.06.57.85 1.13 1.72 1.66 2.59.03.06.07.11.1.16.51.84 1 1.7 1.47 2.56.06.1.11.2.16.3.44.82.86 1.64 1.27 2.47.08.16.15.32.23.48.37.78.72 1.56 1.06 2.35.1.22.19.45.29.67.3.73.59 1.47.87 2.21.11.29.21.58.32.87.24.68.47 1.37.7 2.06.11.35.22.7.33 1.05.19.64.37 1.29.55 1.94.11.4.22.8.32 1.21.15.61.29 1.23.43 1.85.09.44.19.87.28 1.31.12.6.22 1.21.32 1.82.08.46.16.91.23 1.37.09.62.17 1.25.24 1.87.05.45.11.9.16 1.35.07.69.11 1.38.16 2.08.02.39.06.77.08 1.16.05 1.09.08 2.18.08 3.28 0 1.09-.03 2.18-.08 3.25-.03.67-.09 1.34-.14 2.01-.04.44-.06.88-.11 1.32-.05.51-.12 1.02-.18 1.52-.07.6-.14 1.21-.23 1.8-.05.37-.13.73-.19 1.1-.12.74-.24 1.48-.39 2.21-.05.23-.1.45-.15.68-.19.87-.38 1.74-.6 2.6-.03.09-.05.18-.08.27-3.02 11.56-9.08 21.9-17.29 30.1 0 .01-.01.02-.02.02-.74.75-1.5 1.48-2.28 2.18-.01.01-.01.01-.01.01-.78.71-1.58 1.4-2.4 2.08 0 0-.01.01-.02.01-.81.67-1.64 1.32-2.48 1.95-.01.01-.02.02-.03.03-.84.62-1.69 1.23-2.55 1.81-.03.02-.06.04-.09.06-.84.57-1.7 1.12-2.57 1.65-.06.03-.12.07-.18.11-.83.5-1.68.99-2.53 1.46-.11.05-.22.11-.32.17-.81.43-1.63.85-2.46 1.26-.16.08-.33.16-.49.23-.77.37-1.55.72-2.33 1.06-.23.1-.46.19-.69.29-.73.3-1.46.59-2.19.87-.3.1-.59.21-.88.32-.68.24-1.37.47-2.06.69-.35.12-.7.23-1.06.34-.64.19-1.28.37-1.93.55-.4.11-.8.22-1.21.32-.61.15-1.23.29-1.85.43-.43.09-.87.19-1.31.28-.6.12-1.21.22-1.82.32-.46.08-.91.16-1.37.23-.62.09-1.24.17-1.87.24-.12.01-.25.03-.37.04.33.04.65.08.98.12.69.07 1.39.11 2.08.16.39.02.77.06 1.16.08 1.09.05 2.18.08 3.28.08s2.19-.03 3.28-.08c.39-.02.77-.06 1.16-.08.69-.05 1.39-.09 2.08-.16.45-.05.9-.11 1.35-.16.63-.07 1.25-.15 1.87-.24.46-.07.91-.15 1.37-.23.61-.1 1.22-.2 1.82-.32.44-.09.88-.19 1.31-.28.62-.14 1.24-.28 1.85-.43.41-.1.81-.21 1.21-.32.65-.18 1.29-.36 1.93-.55.36-.11.71-.22 1.06-.34.69-.22 1.38-.45 2.06-.69.29-.11.58-.22.88-.32.73-.28 1.46-.57 2.19-.87.23-.1.46-.19.69-.29.78-.34 1.56-.69 2.33-1.06.16-.07.33-.15.49-.23.83-.41 1.65-.83 2.46-1.26.1-.06.21-.12.32-.17.85-.47 1.7-.96 2.53-1.46.06-.04.12-.08.18-.11.87-.53 1.73-1.08 2.57-1.65.03-.02.06-.04.09-.06.86-.58 1.71-1.19 2.55-1.81l.03-.03c.84-.63 1.67-1.28 2.48-1.95.01 0 .02-.01.02-.01.82-.68 1.62-1.37 2.4-2.08 0 0 0 0 .01-.01.78-.7 1.54-1.43 2.28-2.18.01 0 .02-.01.02-.02 8.21-8.2 14.27-18.54 17.29-30.1.03-.09.05-.18.08-.27.22-.86.41-1.73.6-2.6.05-.23.1-.45.15-.68.15-.73.27-1.47.39-2.21.06-.37.14-.73.19-1.1.09-.59.16-1.2.23-1.8.06-.5.13-1.01.18-1.52.05-.44.07-.88.11-1.32.05-.67.11-1.34.14-2.01.05-1.07.08-2.16.08-3.25 0-1.1-.03-2.19-.08-3.28z" fill="#b9c239"/></svg>