<svg id="Layer_1" enable-background="new 0 0 256 256" height="512" viewBox="0 0 256 256" width="512" xmlns="http://www.w3.org/2000/svg"><path d="m222.394 35.623h-188.789c-9.447 0-17.105 7.658-17.105 17.105v130.289c0 9.447 7.658 17.105 17.105 17.105h188.789c9.447 0 17.106-7.658 17.106-17.105v-130.289c0-9.447-7.658-17.105-17.106-17.105z" fill="#87796f"/><path d="m222.394 34.123h-188.789c-10.259 0-18.605 8.346-18.605 18.605v57.441c0 .829.671 1.5 1.5 1.5s1.5-.671 1.5-1.5v-57.441c0-8.605 7-15.605 15.605-15.605h188.789c8.605 0 15.606 7 15.606 15.605v130.289c0 8.605-7 15.605-15.606 15.605h-188.789c-8.605 0-15.605-7-15.605-15.605v-58.774c0-.829-.671-1.5-1.5-1.5s-1.5.671-1.5 1.5v58.774c0 10.259 8.346 18.605 18.605 18.605h188.789c10.259 0 18.606-8.346 18.606-18.605v-130.289c0-10.259-8.346-18.605-18.606-18.605z" fill="#3a312a"/><path d="m8.25 200.117c0 5.6 2.27 10.66 5.93 14.33 3.67 3.66 8.73 5.93 14.32 5.93h199c11.18 0 20.25-9.07 20.25-20.26z" fill="#87796f"/><path d="m247.75 198.618h-239.5c-.829 0-1.5.671-1.5 1.5 0 5.806 2.262 11.271 6.371 15.392 4.118 4.106 9.579 6.368 15.379 6.368h199c11.993 0 21.75-9.761 21.75-21.76 0-.829-.671-1.5-1.5-1.5zm-20.25 20.259h-199c-5 0-9.71-1.95-13.258-5.489-3.186-3.195-5.084-7.329-5.434-11.771h236.382c-.766 9.646-8.856 17.26-18.69 17.26z" fill="#3a312a"/><path d="m214.97 48.118h-173.94c-6.58 0-11.92 5.34-11.92 11.92v115.67c0 6.58 5.34 11.91 11.92 11.91h173.94c6.58 0 11.92-5.33 11.92-11.91v-115.67c0-6.58-5.34-11.92-11.92-11.92z" fill="#fae6ca"/><path d="m214.97 46.618h-40.901c-.829 0-1.5.671-1.5 1.5s.671 1.5 1.5 1.5h40.901c5.746 0 10.42 4.674 10.42 10.42v115.67c0 5.74-4.674 10.41-10.42 10.41h-173.94c-5.746 0-10.42-4.67-10.42-10.41v-115.67c0-5.746 4.674-10.42 10.42-10.42h120.234c.829 0 1.5-.671 1.5-1.5s-.671-1.5-1.5-1.5h-120.234c-7.4 0-13.42 6.02-13.42 13.42v115.67c0 7.395 6.02 13.41 13.42 13.41h173.94c7.4 0 13.42-6.016 13.42-13.41v-115.67c0-7.4-6.02-13.42-13.42-13.42z" fill="#3a312a"/><path d="m112.5 200.117v6.446c0 2.173 1.761 3.934 3.934 3.934h25.133c2.172 0 3.934-1.761 3.934-3.934v-6.446z" fill="#87796f"/><path d="m145.5 198.618h-33c-.829 0-1.5.671-1.5 1.5v6.446c0 2.996 2.438 5.434 5.434 5.434h25.133c2.996 0 5.434-2.438 5.434-5.434v-6.446c-.001-.829-.672-1.5-1.501-1.5zm-1.5 7.946c0 1.342-1.092 2.434-2.434 2.434h-25.133c-1.342 0-2.434-1.092-2.434-2.434v-4.946h30v4.946z" fill="#3a312a"/><path d="m214.97 49.617h-15c5.74 0 10.42 4.68 10.42 10.42v115.67c0 5.74-4.68 10.41-10.42 10.41h15c5.74 0 10.42-4.67 10.42-10.41v-115.67c0-5.74-4.68-10.42-10.42-10.42z" fill="#decaad"/><circle cx="128" cy="118" fill="#d6df58" r="33.185"/><path d="m128 83.315c-19.125 0-34.685 15.56-34.685 34.685 0 19.126 15.56 34.685 34.685 34.685s34.685-15.56 34.685-34.685-15.56-34.685-34.685-34.685zm0 66.37c-17.471 0-31.685-14.214-31.685-31.685s14.214-31.685 31.685-31.685 31.685 14.214 31.685 31.685-14.214 31.685-31.685 31.685z" fill="#3a312a"/><path d="m90.605 82.229 13.137 13.137c6.057-6.489 14.681-10.551 24.258-10.551v-18.565c-14.704 0-27.974 6.133-37.395 15.979z" fill="#8ac5dc"/><path d="m128 64.75c-14.669 0-28.334 5.839-38.479 16.442-.564.589-.553 1.521.023 2.098l13.137 13.137c.281.282.663.439 1.06.439h.026c.407-.007.793-.179 1.071-.477 5.977-6.402 14.419-10.075 23.162-10.075.829 0 1.5-.671 1.5-1.5v-18.564c0-.829-.671-1.5-1.5-1.5zm-1.5 18.598c-8.516.374-16.67 3.914-22.771 9.885l-11.012-11.012c9.104-8.993 20.998-14.08 33.783-14.449z" fill="#3a312a"/><path d="m103.742 95.366-13.137-13.137c-8.892 9.293-14.355 21.894-14.355 35.771 0 .544.011 1.085.028 1.624h18.578c-.026-.538-.041-1.08-.041-1.624 0-8.75 3.392-16.705 8.927-22.634z" fill="#87796f"/><path d="m104.802 94.306-13.137-13.137c-.285-.286-.684-.427-1.077-.44-.403.004-.788.171-1.067.463-9.525 9.955-14.771 23.027-14.771 36.808 0 .56.011 1.116.028 1.67.025.811.689 1.454 1.499 1.454h18.578c.41 0 .803-.168 1.086-.465s.432-.697.412-1.107c-.024-.515-.039-1.032-.039-1.553 0-8.047 3.027-15.722 8.523-21.61.553-.59.537-1.512-.035-2.083zm-11.487 23.694v.125h-15.565v-.125c0-12.492 4.568-24.367 12.894-33.61l11.033 11.033c-5.403 6.291-8.362 14.252-8.362 22.577z" fill="#3a312a"/><path d="m128 66.25v18.565c9.577 0 18.201 4.062 24.258 10.551l13.137-13.137c-9.421-9.846-22.691-15.979-37.395-15.979z" fill="#87796f"/><path d="m166.479 81.192c-10.145-10.603-23.81-16.442-38.479-16.442-.829 0-1.5.671-1.5 1.5v18.565c0 .829.671 1.5 1.5 1.5 8.743 0 17.185 3.672 23.162 10.075.278.297.664.469 1.071.477h.026c.397 0 .779-.158 1.06-.439l13.137-13.137c.577-.578.587-1.51.023-2.099zm-14.208 12.04c-6.1-5.971-14.255-9.511-22.771-9.885v-15.576c12.785.369 24.679 5.457 33.783 14.449z" fill="#3a312a"/><path d="m165.395 82.229-13.137 13.137c5.534 5.929 8.927 13.883 8.927 22.634 0 .545-.015 1.086-.041 1.624h18.578c.017-.54.028-1.081.028-1.624 0-13.877-5.463-26.478-14.355-35.771z" fill="#8ac5dc"/><path d="m166.479 81.192c-.279-.292-.664-.459-1.067-.463-.423.011-.792.154-1.077.44l-13.137 13.137c-.572.571-.587 1.493-.036 2.084 5.497 5.889 8.523 13.563 8.523 21.61 0 .521-.015 1.038-.039 1.553-.02.41.129.81.412 1.107s.676.465 1.086.465h18.578c.811 0 1.475-.643 1.5-1.454.017-.555.028-1.111.028-1.67 0-13.782-5.246-26.854-14.771-36.809zm11.771 36.933h-15.565c.001-.042.001-.083.001-.125 0-8.325-2.96-16.286-8.362-22.577l11.033-11.033c8.327 9.243 12.895 21.118 12.895 33.61v.125z" fill="#3a312a"/><path d="m161.144 119.624c-.43 8.926-4.39 16.921-10.51 22.634l13.137 13.137c9.482-9.073 15.518-21.716 15.951-35.771z" fill="#87796f"/><path d="m180.799 118.581c-.282-.292-.671-.456-1.077-.456h-18.578c-.8 0-1.459.628-1.498 1.428-.399 8.266-3.963 15.94-10.036 21.609-.297.278-.469.664-.477 1.071-.007.407.152.799.439 1.086l13.137 13.137c.292.292.676.439 1.061.439.373 0 .747-.139 1.037-.416 10.152-9.714 15.981-22.786 16.414-36.809.013-.405-.14-.798-.422-1.089zm-17.02 34.702-11.011-11.011c5.636-5.742 9.063-13.155 9.776-21.147h15.608c-.743 12.157-5.801 23.475-14.373 32.158z" fill="#3a312a"/><path d="m94.856 119.624h-18.578c.433 14.055 6.469 26.698 15.951 35.771l13.137-13.137c-6.12-5.712-10.08-13.708-10.51-22.634z" fill="#8ac5dc"/><path d="m106.39 141.162c-6.073-5.669-9.637-13.343-10.036-21.609-.039-.799-.698-1.428-1.498-1.428h-18.578c-.406 0-.794.165-1.077.456s-.435.685-.423 1.09c.433 14.023 6.262 27.095 16.414 36.809.291.278.664.416 1.037.416.384 0 .768-.147 1.061-.439l13.137-13.137c.288-.288.446-.68.439-1.086-.007-.408-.179-.794-.476-1.072zm-14.169 12.121c-8.571-8.683-13.629-20-14.373-32.158h15.607c.713 7.992 4.141 15.405 9.776 21.147z" fill="#3a312a"/><path d="m150.634 142.258c-5.929 5.534-13.883 8.927-22.634 8.927v18.565c13.877 0 26.478-5.463 35.771-14.355z" fill="#8ac5dc"/><path d="m164.831 154.335-13.137-13.137c-.572-.572-1.494-.588-2.084-.036-5.889 5.497-13.564 8.523-21.61 8.523-.829 0-1.5.671-1.5 1.5v18.565c0 .829.671 1.5 1.5 1.5 13.781 0 26.853-5.246 36.808-14.77.292-.279.458-.664.463-1.067.004-.405-.154-.793-.44-1.078zm-35.331 13.893v-15.575c7.778-.333 15.165-3.253 21.077-8.33l11.033 11.033c-8.873 7.992-20.17 12.521-32.11 12.872z" fill="#3a312a"/><path d="m105.366 142.258-13.137 13.137c9.293 8.892 21.894 14.355 35.771 14.355v-18.565c-8.75 0-16.705-3.392-22.634-8.927z" fill="#87796f"/><path d="m128 149.685c-8.047 0-15.722-3.027-21.61-8.523-.59-.552-1.513-.536-2.084.036l-13.137 13.137c-.286.285-.444.673-.44 1.077.004.403.171.788.463 1.067 9.955 9.525 23.027 14.77 36.808 14.77.829 0 1.5-.671 1.5-1.5v-18.565c0-.828-.671-1.499-1.5-1.499zm-1.5 18.543c-11.94-.351-23.237-4.88-32.11-12.872l11.033-11.033c5.911 5.077 13.299 7.997 21.077 8.33z" fill="#3a312a"/><path d="m146.486 117.659c1.828-1.782.82-4.887-1.707-5.255l-7.997-1.162c-1.003-.146-1.871-.776-2.32-1.685l-3.577-7.247c-1.13-2.29-4.395-2.29-5.525 0l-3.577 7.247c-.449.909-1.316 1.539-2.319 1.685l-7.997 1.162c-2.527.367-3.536 3.472-1.707 5.255l5.787 5.641c.726.708 1.057 1.727.886 2.727l-1.366 7.965c-.432 2.517 2.21 4.436 4.47 3.247l7.153-3.761c.897-.472 1.97-.472 2.867 0l7.153 3.761c2.26 1.188 4.901-.731 4.47-3.247l-1.366-7.965c-.171-.999.16-2.019.886-2.727z" fill="#f16c7a"/><path d="m147.532 118.733c1.258-1.226 1.702-3.025 1.16-4.695-.543-1.67-1.96-2.865-3.698-3.118l-7.997-1.162c-.515-.075-.959-.398-1.19-.865l-3.577-7.246c-.777-1.575-2.351-2.554-4.108-2.554-1.756 0-3.33.979-4.107 2.553l-3.577 7.247c-.23.467-.675.79-1.19.865l-7.997 1.162c-1.738.253-3.155 1.447-3.698 3.117-.542 1.67-.099 3.47 1.159 4.696l5.787 5.641c.373.363.542.886.455 1.399l-1.366 7.965c-.297 1.731.401 3.448 1.823 4.48.803.583 1.742.879 2.688.879.728 0 1.46-.176 2.136-.531l7.154-3.76c.46-.242 1.01-.242 1.471 0l7.153 3.76c1.555.816 3.403.684 4.824-.348s2.119-2.749 1.822-4.48l-1.366-7.965c-.088-.513.082-1.036.455-1.399zm-7.88 3.493c-1.08 1.052-1.573 2.568-1.318 4.054l1.366 7.965c.104.607-.131 1.185-.628 1.546-.499.361-1.121.407-1.665.12l-7.153-3.76c-1.335-.702-2.929-.702-4.263 0l-7.154 3.76c-.544.287-1.167.242-1.664-.12-.498-.361-.733-.939-.629-1.546l1.366-7.965c.255-1.486-.238-3.002-1.318-4.054l-5.787-5.641c-.44-.429-.59-1.035-.399-1.62.19-.585.667-.987 1.276-1.076l7.998-1.162c1.492-.217 2.781-1.154 3.449-2.506l3.577-7.247c.272-.551.802-.881 1.417-.881.616 0 1.146.33 1.418.881l3.577 7.247c.667 1.352 1.957 2.289 3.449 2.506l7.998 1.162c.609.088 1.086.491 1.276 1.076s.041 1.191-.4 1.62z" fill="#3a312a"/></svg>