<?xml version="1.0" encoding="utf-8"?>
<!-- Generator: Adobe Illustrator 21.1.0, SVG Export Plug-In . SVG Version: 6.00 Build 0)  -->
<svg version="1.1" id="Layer_1" xmlns="http://www.w3.org/2000/svg" xmlns:xlink="http://www.w3.org/1999/xlink" x="0px" y="0px"
	 viewBox="0 0 512 512" style="enable-background:new 0 0 512 512;" xml:space="preserve">
<style type="text/css">
	.st0{fill:#D6DF58;}
	.st1{fill:#3A312A;}
	.st2{fill:#87796F;}
	.st3{fill:#FCE8CB;}
	.st4{fill:#F16C7A;}
	.st5{fill:#8AC6DD;}
	.st6{fill:#DECAAD;}
	.st7{fill:#8AC5DC;}
	.st8{fill:#B9C239;}
</style>
<path class="st0" d="M95.9,52.5c-1.9,23.1-26,26.8-26,26.8c20.7,1,25.8,28.1,25.8,28.1C96.1,88.1,122.3,79,122.3,79
	C102.7,77.8,95.9,52.5,95.9,52.5z"/>
<path class="st1" d="M122.5,76c-17.2-1-23.7-24-23.7-24.3c-0.4-1.4-1.7-2.3-3.2-2.2c-1.4,0.1-2.6,1.3-2.7,2.7
	c-1.7,20.4-22.6,23.9-23.5,24.1c-1.5,0.2-2.6,1.6-2.5,3.1c0.1,1.5,1.3,2.8,2.9,2.8c18.1,0.9,23,25.4,23,25.7
	c0.3,1.4,1.5,2.4,2.9,2.4c0.1,0,0.2,0,0.3,0c1.5-0.1,2.7-1.4,2.8-2.9c0.4-17,24.4-25.6,24.6-25.6c1.3-0.5,2.2-1.8,2-3.2
	C125.1,77.2,123.9,76.1,122.5,76z M95.4,96.7C92.7,90.4,88,82.9,80.2,79c5.9-2.8,12.8-7.8,16.4-16.5c3.1,6.1,8.4,13.8,16.7,17.4
	C107.3,83.1,99.4,88.7,95.4,96.7z"/>
<path class="st0" d="M52.5,86.5c-1.4,16.4-18.4,18.9-18.4,18.9c14.6,0.7,18.3,19.9,18.3,19.9c0.3-13.7,18.8-20.1,18.8-20.1
	C57.3,104.4,52.5,86.5,52.5,86.5z"/>
<path class="st1" d="M71.4,102.2c-11.5-0.7-15.9-16.4-16-16.5c-0.4-1.4-1.7-2.3-3.2-2.2c-1.5,0.1-2.6,1.3-2.7,2.7
	c-1.2,13.7-15.3,16.1-15.9,16.2c-1.5,0.2-2.6,1.6-2.5,3.1c0.1,1.5,1.3,2.8,2.9,2.8c12.1,0.6,15.4,17.3,15.5,17.5
	c0.3,1.4,1.5,2.4,2.9,2.4c0.1,0,0.2,0,0.3,0c1.5-0.1,2.7-1.4,2.8-2.9C55.6,114,72,108.1,72.2,108c1.4-0.5,2.2-1.8,2-3.2
	S72.8,102.3,71.4,102.2z M52.2,115.8c-1.8-3.8-4.7-7.9-8.9-10.6c3.7-2.1,7.4-5.3,9.7-9.8c2.1,3.7,5.3,7.9,9.9,10.4
	C59.2,108.1,55,111.3,52.2,115.8z"/>
<path class="st0" d="M52.4,33.2c-1.3,16.4-18.3,19-18.3,19C48.7,52.8,52.4,72,52.4,72c0.3-13.7,18.8-20.2,18.8-20.2
	C57.3,51,52.4,33.2,52.4,33.2z"/>
<path class="st1" d="M71.4,48.8c-11.5-0.6-16-16.2-16.1-16.5c-0.4-1.4-1.7-2.4-3.2-2.2c-1.5,0.1-2.6,1.3-2.7,2.7
	c-1.1,13.7-15.2,16.2-15.8,16.3c-1.5,0.2-2.6,1.6-2.5,3.1c0.1,1.5,1.3,2.8,2.9,2.8C46,55.7,49.5,72.4,49.5,72.6
	C49.8,74,51,75,52.4,75c0.1,0,0.2,0,0.3,0c1.5-0.1,2.7-1.4,2.7-2.9C55.6,60.6,72,54.7,72.2,54.7c1.4-0.5,2.2-1.8,2-3.3
	C74,50,72.8,48.9,71.4,48.8z M52.2,62.5c-1.9-3.8-4.7-7.9-8.9-10.5c3.7-2.1,7.4-5.3,9.7-9.9c2.1,3.7,5.3,7.9,9.9,10.4
	C59.2,54.7,55,58,52.2,62.5z"/>
<path class="st2" d="M326.6,140.1l24-65.6h-0.1c0.9-3,1.4-6.2,1.4-9.5c0-17.7-14.3-32-32-32s-32,14.3-32,32c0-17.7-14.3-32-32-32
	s-32,14.3-32,32c0-17.7-14.3-32-32-32s-32,14.3-32,32c0,3.3,0.5,6.5,1.4,9.5h-0.1l24,65.6C130.7,166.4,93,222.3,93,287
	c0,90,73,100,163,100s163-10,163-100C419,222.3,381.3,166.4,326.6,140.1L326.6,140.1z"/>
<path class="st1" d="M330.4,138.6l23.1-63.1c0.1-0.2,0.1-0.5,0.2-0.7c0.9-3.2,1.4-6.5,1.4-9.8c0-19.3-15.7-35-35-35
	c-14.3,0-26.5,8.6-32,20.8C282.5,38.6,270.3,30,256,30s-26.5,8.6-32,20.8C218.5,38.6,206.3,30,192,30c-19.3,0-35,15.7-35,35
	c0,3.3,0.5,6.6,1.4,9.8c0,0.2,0.1,0.5,0.2,0.7l23.1,63C125.9,166.6,90,224.5,90,287c0,42.7,16.2,71,49.5,86.5
	C170.7,388,213.9,390,256,390s85.3-2,116.5-16.5c33.3-15.5,49.5-43.8,49.5-86.5C422,224.5,386.1,166.6,330.4,138.6L330.4,138.6z
	 M256,384c-84.3,0-160-7.4-160-97c0-61.1,35.6-117.7,90.6-144.2c1.4-0.7,2-2.3,1.5-3.7L164.4,74c0-0.1-0.1-0.3-0.1-0.4
	c-0.9-2.8-1.3-5.7-1.3-8.6c0-16,13-29,29-29s29,13,29,29c0,1.7,1.3,3,3,3s3-1.3,3-3c0-16,13-29,29-29s29,13,29,29c0,1.7,1.3,3,3,3
	s3-1.3,3-3c0-16,13-29,29-29s29,13,29,29c0,2.9-0.4,5.8-1.3,8.6c0,0.1-0.1,0.2-0.1,0.4L323.8,139c-0.5,1.4,0.1,3.1,1.5,3.7
	C380.4,169.3,416,225.9,416,287C416,376.6,340.3,384,256,384L256,384z"/>
<path class="st3" d="M464.2,311.1c-3.3-0.2-6.7,0.6-9.9,2.2l-67.1,35H280.9c-23.2,0-45.8,6.5-65.4,18.9l-15,9.4
	c-5.7,3.6-12.4,5.5-19.1,5.5h-1.9v15.7c0,0,0,0,0,0v29.4c0,0,0,0,0,0v18l142.5-4.4c12.2-0.8,24-4.9,34-11.9l118.4-91.1
	c3.9-2.7,5.1-6.5,5.2-10.1C479.9,319.1,472.9,311.5,464.2,311.1L464.2,311.1z"/>
<path class="st1" d="M464.3,308.1c-3.9-0.2-7.9,0.7-11.4,2.5l-66.5,34.6H280.9c-23.8,0-46.9,6.7-67,19.3l-15,9.4
	c-5.3,3.3-11.3,5.1-17.5,5.1h-1.9c-1.7,0-3,1.3-3,3v15.7c0,1.7,1.4,3,3,3s3-1.3,3-3c0-0.1,0-0.2,0-0.3V385c7-0.2,13.7-2.2,19.6-6
	l15-9.4c19.1-12,41.2-18.4,63.8-18.4h106.3c0.5,0,1-0.1,1.4-0.3l67.1-35c2.6-1.3,5.5-2,8.3-1.8c7,0.3,12.8,6.5,12.7,13.6
	c-0.1,3.4-1.4,6-4.1,7.8l-118.3,91c-9.6,6.7-20.8,10.6-32.4,11.4l-139.4,4.3v-14.5c0-0.1,0-0.3,0-0.4c0-1.6-1.3-2.9-2.8-3
	c-0.1,0-0.1,0-0.2,0c-1.7,0-3,1.3-3,3v18c0,0.8,0.3,1.6,0.9,2.2c0.6,0.5,1.3,0.8,2.1,0.8c0,0,0.1,0,0.1,0l142.6-4.4
	c12.8-0.8,25.1-5.1,35.7-12.5l118.3-91c4.1-2.9,6.4-7.2,6.5-12.5C482.9,317.6,474.5,308.5,464.3,308.1L464.3,308.1z"/>
<path class="st1" d="M390.2,349.8c-0.6-1.5-2.4-2.3-3.9-1.6c-1.5,0.6-2.3,2.4-1.6,3.9c2.3,5.7-1,12.5-5.5,16.3
	c-5.2,4.5-12.5,6.6-18.9,8.5c-14.5,4.3-27.6,7-41.5,9.8c-13.4,2.7-27.3,5.5-44.4,10.1c-1.6,0.4-2.5,2.1-2.1,3.7
	c0.4,1.3,1.6,2.2,2.9,2.2c0.3,0,0.5,0,0.8-0.1c16.9-4.6,30.7-7.4,44-10.1c14-2.8,27.3-5.5,42-9.9c7-2.1,14.9-4.4,21.1-9.7
	C389,367.9,393.7,358.5,390.2,349.8L390.2,349.8z"/>
<path class="st4" d="M89.7,350.2H61.3h-29V479h94.5V350.2H89.7z"/>
<path class="st1" d="M126.8,347.2H89.7c-1.7,0-3,1.3-3,3s1.3,3,3,3h34.1V476H35.3V353.2h26c1.7,0,3-1.3,3-3s-1.3-3-3-3h-29
	c-1.7,0-3,1.3-3,3V479c0,1.7,1.3,3,3,3h94.5c1.7,0,3-1.3,3-3V350.2C129.8,348.5,128.5,347.2,126.8,347.2z"/>
<path class="st5" d="M163.5,350.2h-36.7V479h36.7c8.8,0,16-7.2,16-16v-35.8v-29.4v-31.6C179.5,357.3,172.3,350.2,163.5,350.2
	L163.5,350.2z"/>
<path class="st1" d="M179.5,400.8c1.7,0,3-1.3,3-3v-31.6c0-10.5-8.5-19-19-19h-36.7c-1.7,0-3,1.3-3,3V479c0,1.7,1.3,3,3,3h36.7
	c10.5,0,19-8.5,19-19v-35.8c0-1.7-1.3-3-3-3s-3,1.3-3,3V463c0,7.2-5.8,13-13,13h-33.7V353.2h33.7c7.2,0,13,5.8,13,13v31.6
	C176.5,399.4,177.8,400.8,179.5,400.8z"/>
<path class="st2" d="M153.1,440.2c-6.7,0-12.1,5.4-12.1,12.1s5.4,12.1,12.1,12.1s12.1-5.4,12.1-12.1S159.8,440.2,153.1,440.2z"/>
<path class="st1" d="M153.1,437.2c-8.3,0-15.1,6.8-15.1,15.1c0,8.3,6.8,15.1,15.1,15.1s15.1-6.8,15.1-15.1
	C168.2,444,161.4,437.2,153.1,437.2z M153.1,461.3c-5,0-9.1-4.1-9.1-9.1c0-5,4.1-9.1,9.1-9.1s9.1,4.1,9.1,9.1
	C162.2,457.3,158.1,461.3,153.1,461.3z"/>
<path class="st4" d="M338,117H236.4h-27.5H176c-8.3,0-15,6.7-15,15s6.7,15,15,15h162c8.3,0,15-6.7,15-15S346.3,117,338,117z"/>
<path class="st1" d="M338,114H236.4c-1.7,0-3,1.3-3,3s1.3,3,3,3H338c6.6,0,12,5.4,12,12s-5.4,12-12,12H176c-6.6,0-12-5.4-12-12
	s5.4-12,12-12h32.9c1.7,0,3-1.3,3-3s-1.3-3-3-3H176c-9.9,0-18,8.1-18,18s8.1,18,18,18h162c9.9,0,18-8.1,18-18S347.9,114,338,114z"/>
<path class="st6" d="M464,314.1c-2.9-0.1-5.8,0.5-8.4,1.8l-8.4,4.4c1.4,2.2,2.2,4.7,2.1,7.4c-0.1,3.4-1.4,6-4.1,7.8l-118.3,91
	c-14.1,9.9-33.1,11.9-33.1,12.2l28-0.9c11.6-0.7,22.8-4.7,32.4-11.4l118.3-91c2.7-1.9,4-4.4,4.1-7.8
	C476.9,320.6,471.1,314.4,464,314.1L464,314.1z"/>
<g>
	<ellipse transform="matrix(0.7071 -0.7071 0.7071 0.7071 -106.0449 255.9847)" class="st0" cx="256" cy="256" rx="51" ry="51"/>
	<path class="st1" d="M256,203.8c-28.8,0-52.2,23.4-52.2,52.2s23.4,52.2,52.2,52.2s52.2-23.4,52.2-52.2
		C308.2,227.2,284.8,203.8,256,203.8L256,203.8z M256,305.9c-27.5,0-49.9-22.4-49.9-49.9c0-27.5,22.4-49.9,49.9-49.9
		s49.9,22.4,49.9,49.9C305.9,283.5,283.5,305.9,256,305.9z"/>
	<path class="st7" d="M198.5,201l6.9,6.9l7.6,7.6l5.7,5.7c9.3-10,22.6-16.2,37.3-16.2v-28.6C233.4,176.4,213,185.8,198.5,201
		L198.5,201z"/>
	<path class="st1" d="M256,175.3c-22.2,0-43,8.9-58.3,24.9c-0.4,0.4-0.4,1.1,0,1.6l6.9,6.9c0.4,0.4,1.2,0.4,1.6,0
		c0.4-0.4,0.4-1.2,0-1.6l-6.1-6.1c14.6-14.9,34-23.1,54.8-23.4v26.3c-13.6,0.3-26.7,6-36.2,15.7l-4.9-4.9c-0.4-0.4-1.2-0.4-1.6,0
		c-0.4,0.4-0.4,1.2,0,1.6l5.7,5.7c0.2,0.2,0.5,0.3,0.8,0.3h0c0.3,0,0.6-0.1,0.8-0.4c9.4-10.1,22.7-15.9,36.5-15.9
		c0.6,0,1.1-0.5,1.1-1.1v-28.6C257.1,175.8,256.6,175.3,256,175.3L256,175.3z"/>
	<path class="st2" d="M218.7,221.2l-5.7-5.7l-7.6-7.6l-6.9-6.9c-13.7,14.3-22.1,33.7-22.1,55c0,0.8,0,1.7,0,2.5H205
		c0-0.8-0.1-1.7-0.1-2.5C204.9,242.5,210.2,230.3,218.7,221.2L218.7,221.2z"/>
	<path class="st1" d="M219.5,220.4l-5.7-5.7c-0.4-0.4-1.2-0.4-1.6,0c-0.4,0.4-0.4,1.2,0,1.6l5,5c-8.6,9.6-13.3,21.9-13.3,34.8
		c0,0.4,0,0.9,0,1.4h-26.3c0-0.5,0-0.9,0-1.4c0-19.9,7.4-38.8,21-53.4l6,6c0.4,0.4,1.2,0.4,1.6,0c0.4-0.4,0.4-1.2,0-1.6l-6.9-6.9
		c-0.2-0.2-0.5-0.3-0.8-0.3c-0.3,0-0.6,0.1-0.8,0.3c-14.4,15.1-22.4,34.9-22.4,55.8c0,0.8,0,1.7,0,2.5c0,0.6,0.5,1.1,1.1,1.1H205
		c0.3,0,0.6-0.1,0.8-0.4s0.3-0.5,0.3-0.8c0-0.9-0.1-1.7-0.1-2.4c0-12.7,4.8-24.8,13.4-34.1C219.9,221.5,219.9,220.8,219.5,220.4
		L219.5,220.4z"/>
	<path class="st2" d="M256,176.4v28.6c14.7,0,28,6.2,37.3,16.2l20.2-20.2C299,185.8,278.6,176.4,256,176.4L256,176.4z"/>
	<path class="st1" d="M314.3,200.2c-15.4-16.1-36.1-24.9-58.3-24.9c-0.6,0-1.1,0.5-1.1,1.1v28.6c0,0.6,0.5,1.1,1.1,1.1
		c13.8,0,27.1,5.8,36.5,15.9c0.2,0.2,0.5,0.4,0.8,0.4h0c0.3,0,0.6-0.1,0.8-0.3l20.2-20.2C314.8,201.3,314.8,200.6,314.3,200.2
		L314.3,200.2z M293.3,219.6c-9.5-9.8-22.6-15.4-36.2-15.7v-26.3c20.8,0.3,40.2,8.6,54.8,23.4L293.3,219.6z"/>
	<path class="st7" d="M313.5,201l-20.2,20.2c8.5,9.1,13.7,21.4,13.7,34.8c0,0.8,0,1.7-0.1,2.5h28.6c0-0.8,0-1.7,0-2.5
		C335.6,234.7,327.2,215.3,313.5,201L313.5,201z"/>
	<path class="st1" d="M314.3,200.2c-0.2-0.2-0.5-0.3-0.8-0.3c-0.3,0-0.6,0.1-0.8,0.3l-20.2,20.2c-0.4,0.4-0.4,1.1,0,1.6
		c8.7,9.3,13.4,21.4,13.4,34.1c0,0.8,0,1.6-0.1,2.4c0,0.3,0.1,0.6,0.3,0.8s0.5,0.4,0.8,0.4h28.6c0.6,0,1.1-0.5,1.1-1.1
		c0-0.8,0-1.7,0-2.5C336.7,235.1,328.8,215.3,314.3,200.2L314.3,200.2z M334.5,257.4h-26.3c0-0.5,0-0.9,0-1.4
		c0-12.9-4.7-25.2-13.3-34.8l18.6-18.6c13.5,14.6,21,33.5,21,53.4C334.5,256.5,334.5,256.9,334.5,257.4z"/>
	<path class="st2" d="M307,258.5c-0.7,13.7-6.8,26-16.2,34.8l7.2,7.2l7.6,7.6l5.4,5.4c14.6-14,23.9-33.4,24.5-55H307z"/>
	<path class="st1" d="M336.4,257.7c-0.2-0.2-0.5-0.3-0.8-0.3H307c-0.6,0-1.1,0.5-1.1,1.1c-0.6,13-6.2,25.1-15.8,34.1
		c-0.2,0.2-0.4,0.5-0.4,0.8c0,0.3,0.1,0.6,0.3,0.8l7.2,7.2c0.4,0.4,1.2,0.4,1.6,0c0.4-0.4,0.4-1.2,0-1.6l-6.4-6.4
		c9.2-9,14.7-20.9,15.6-33.7h26.3c-0.9,19.9-9.2,38.4-23.4,52.3l-4.6-4.6c-0.4-0.4-1.2-0.4-1.6,0c-0.4,0.4-0.4,1.2,0,1.6l5.4,5.4
		c0.2,0.2,0.5,0.3,0.8,0.3c0.3,0,0.6-0.1,0.8-0.3c15.4-14.7,24.2-34.6,24.9-55.8C336.7,258.2,336.6,257.9,336.4,257.7L336.4,257.7z"
		/>
	<path class="st7" d="M205,258.5h-28.6c0.7,21.6,10,41.1,24.5,55l20.2-20.2C211.8,284.5,205.7,272.2,205,258.5z"/>
	<path class="st1" d="M221.9,292.5c-9.6-8.9-15.2-21-15.8-34.1c0-0.6-0.5-1.1-1.1-1.1h-28.6c-0.3,0-0.6,0.1-0.8,0.3
		c-0.2,0.2-0.3,0.5-0.3,0.8c0.7,21.3,9.5,41.1,24.9,55.8c0.2,0.2,0.5,0.3,0.8,0.3c0.3,0,0.6-0.1,0.8-0.3l20.2-20.2
		c0.2-0.2,0.3-0.5,0.3-0.8C222.3,293,222.2,292.7,221.9,292.5L221.9,292.5z M201,311.9c-14.2-14-22.5-32.5-23.4-52.3h26.3
		c0.9,12.8,6.4,24.7,15.6,33.7L201,311.9z"/>
	<path class="st7" d="M305.7,308.2l-7.6-7.6l-7.2-7.2c-9.1,8.5-21.4,13.7-34.8,13.7v28.6c21.3,0,40.7-8.4,55-22.1L305.7,308.2z"/>
	<path class="st1" d="M311.8,312.7l-5.4-5.4c-0.4-0.4-1.2-0.4-1.6,0c-0.4,0.4-0.4,1.2,0,1.6l4.5,4.5c-14.3,13.3-32.8,20.7-52.3,21
		v-26.3c12.5-0.3,24.4-5,33.7-13.3l6.5,6.5c0.4,0.4,1.2,0.4,1.6,0c0.4-0.4,0.4-1.2,0-1.6l-7.2-7.2c-0.4-0.4-1.1-0.4-1.6,0
		c-9.3,8.7-21.4,13.4-34.1,13.4c-0.6,0-1.1,0.5-1.1,1.1v28.6c0,0.6,0.5,1.1,1.1,1.1c20.9,0,40.7-8,55.8-22.4
		c0.2-0.2,0.3-0.5,0.3-0.8C312.2,313.2,312,312.9,311.8,312.7L311.8,312.7z"/>
	<path class="st2" d="M221.2,293.3L201,313.5c14.3,13.7,33.7,22.1,55,22.1v-28.6C242.5,307.1,230.3,301.8,221.2,293.3L221.2,293.3z"
		/>
	<path class="st1" d="M256,305.9c-12.7,0-24.8-4.8-34.1-13.4c-0.4-0.4-1.1-0.4-1.6,0l-20.2,20.2c-0.2,0.2-0.3,0.5-0.3,0.8
		c0,0.3,0.1,0.6,0.3,0.8c15.1,14.4,34.9,22.4,55.8,22.4c0.6,0,1.1-0.5,1.1-1.1v-28.6C257.1,306.4,256.6,305.9,256,305.9L256,305.9z
		 M254.9,334.5c-19.5-0.3-38-7.7-52.3-21l18.6-18.6c9.3,8.3,21.2,13,33.7,13.3V334.5z"/>
	<path class="st4" d="M284.4,255.5c2.8-2.7,1.3-7.5-2.6-8.1l-12.3-1.8c-1.5-0.2-2.9-1.2-3.6-2.6l-5.5-11.1c-1.7-3.5-6.8-3.5-8.5,0
		l-5.5,11.1c-0.7,1.4-2,2.4-3.6,2.6l-12.3,1.8c-3.9,0.6-5.4,5.3-2.6,8.1l8.9,8.7c1.1,1.1,1.6,2.7,1.4,4.2l-2.1,12.3
		c-0.7,3.9,3.4,6.8,6.9,5l11-5.8c1.4-0.7,3-0.7,4.4,0l11,5.8c3.5,1.8,7.5-1.1,6.9-5l-2.1-12.3c-0.3-1.5,0.2-3.1,1.4-4.2L284.4,255.5
		z"/>
	<path class="st1" d="M285.2,256.3c1.6-1.6,2.2-3.9,1.5-6c-0.7-2.1-2.5-3.7-4.7-4l-12.3-1.8c-1.2-0.2-2.2-0.9-2.7-2l-5.5-11.1
		c-1-2-3-3.3-5.3-3.3c-2.2,0-4.3,1.3-5.3,3.3l-5.5,11.1c-0.5,1.1-1.5,1.8-2.7,2l-12.3,1.8c-2.2,0.3-4,1.9-4.7,4
		c-0.7,2.1-0.1,4.4,1.5,6l8.9,8.7c0.9,0.8,1.2,2,1,3.2l-2.1,12.3c-0.4,2.2,0.5,4.4,2.3,5.7c1,0.7,2.2,1.1,3.4,1.1
		c0.9,0,1.9-0.2,2.7-0.7l11-5.8c1.1-0.6,2.3-0.6,3.4,0l11,5.8c2,1,4.4,0.9,6.2-0.4c1.8-1.3,2.7-3.5,2.3-5.7l-2.1-12.3
		c-0.2-1.2,0.2-2.4,1-3.2L285.2,256.3z M273.1,268.5l2.1,12.3c0.2,1.4-0.3,2.7-1.4,3.5c-1.1,0.8-2.6,0.9-3.8,0.3l-11-5.8
		c-1.7-0.9-3.8-0.9-5.5,0l-11,5.8c-1.2,0.7-2.7,0.6-3.8-0.3c-1.1-0.8-1.7-2.1-1.4-3.5l2.1-12.3c0.3-1.9-0.3-3.8-1.7-5.2l-8.9-8.7
		c-1-1-1.3-2.4-0.9-3.7c0.4-1.3,1.5-2.3,2.9-2.5l12.3-1.8c1.9-0.3,3.6-1.5,4.4-3.2l5.5-11.1c0.6-1.3,1.8-2,3.2-2
		c1.4,0,2.6,0.8,3.2,2l5.5,11.1c0.9,1.7,2.5,2.9,4.4,3.2l12.3,1.8c1.4,0.2,2.5,1.1,2.9,2.5c0.4,1.3,0.1,2.7-0.9,3.7l-8.9,8.7
		C273.4,264.7,272.7,266.6,273.1,268.5L273.1,268.5z"/>
	<path class="st8" d="M305.9,253.5c0-0.3,0-0.6-0.1-0.9c0-0.5-0.1-1-0.1-1.6c0-0.3-0.1-0.7-0.1-1c-0.1-0.5-0.1-0.9-0.2-1.4
		c-0.1-0.3-0.1-0.7-0.2-1c-0.1-0.5-0.2-0.9-0.2-1.4c-0.1-0.3-0.1-0.7-0.2-1c-0.1-0.5-0.2-0.9-0.3-1.4c-0.1-0.3-0.2-0.6-0.2-0.9
		c-0.1-0.5-0.3-1-0.4-1.5c-0.1-0.3-0.2-0.5-0.2-0.8c-0.2-0.5-0.3-1-0.5-1.6c-0.1-0.2-0.2-0.4-0.2-0.7c-0.2-0.6-0.4-1.1-0.7-1.7
		c-0.1-0.2-0.1-0.3-0.2-0.5c-0.3-0.6-0.5-1.2-0.8-1.8c-0.1-0.1-0.1-0.2-0.2-0.4c-0.3-0.6-0.6-1.2-1-1.9c0-0.1-0.1-0.2-0.1-0.2
		c-0.4-0.6-0.7-1.3-1.1-1.9c0,0-0.1-0.1-0.1-0.1c-0.4-0.7-0.8-1.3-1.2-1.9c0,0,0,0,0,0c-0.4-0.7-0.9-1.3-1.4-1.9c0,0,0,0,0,0
		c-1.4-1.9-2.9-3.6-4.5-5.3c-0.1-0.1-0.2-0.2-0.2-0.3c-0.5-0.5-0.9-0.9-1.4-1.3c-0.1-0.1-0.3-0.3-0.4-0.4c-0.4-0.4-0.8-0.7-1.3-1.1
		c-0.2-0.2-0.5-0.4-0.7-0.6c-0.4-0.3-0.7-0.6-1.1-0.8c-0.4-0.3-0.7-0.5-1.1-0.8c-0.3-0.2-0.5-0.4-0.8-0.6c-0.5-0.4-1-0.7-1.5-1
		c-0.1-0.1-0.3-0.2-0.4-0.2c-7.9-4.9-17.1-7.6-26.5-7.6c-1.9,0-3.8,0.1-5.6,0.3c7.4,0.9,14.6,3.4,20.8,7.3c0.1,0.1,0.3,0.2,0.4,0.2
		c0.5,0.3,1,0.7,1.5,1c0.3,0.2,0.5,0.4,0.8,0.6c0.4,0.3,0.7,0.5,1.1,0.8c0.4,0.3,0.7,0.6,1.1,0.8c0.2,0.2,0.5,0.4,0.7,0.6
		c0.4,0.4,0.9,0.7,1.3,1.1c0.2,0.1,0.3,0.3,0.4,0.4c0.5,0.4,0.9,0.9,1.4,1.3c0.1,0.1,0.2,0.2,0.2,0.3c1.6,1.6,3.1,3.4,4.5,5.3
		c0,0,0,0,0,0c0.5,0.6,0.9,1.3,1.4,1.9c0,0,0,0,0,0c0.4,0.6,0.9,1.3,1.2,1.9c0,0,0.1,0.1,0.1,0.1c0.4,0.6,0.8,1.3,1.1,1.9
		c0,0.1,0.1,0.2,0.1,0.2c0.3,0.6,0.6,1.2,1,1.9c0.1,0.1,0.1,0.2,0.2,0.4c0.3,0.6,0.5,1.2,0.8,1.8c0.1,0.2,0.1,0.3,0.2,0.5
		c0.2,0.5,0.4,1.1,0.7,1.7c0.1,0.2,0.2,0.4,0.2,0.7c0.2,0.5,0.4,1,0.5,1.6c0.1,0.3,0.2,0.5,0.2,0.8c0.1,0.5,0.3,1,0.4,1.5
		c0.1,0.3,0.2,0.6,0.2,0.9c0.1,0.5,0.2,0.9,0.3,1.4c0.1,0.3,0.1,0.7,0.2,1c0.1,0.5,0.2,0.9,0.2,1.4c0.1,0.3,0.1,0.7,0.2,1
		c0.1,0.5,0.1,0.9,0.2,1.4c0,0.3,0.1,0.7,0.1,1c0.1,0.5,0.1,1,0.1,1.6c0,0.3,0,0.6,0.1,0.9c0,0.8,0.1,1.6,0.1,2.5
		c0,0.8,0,1.6-0.1,2.4c0,0.5-0.1,1-0.1,1.5c0,0.3,0,0.7-0.1,1c0,0.4-0.1,0.8-0.1,1.1c-0.1,0.5-0.1,0.9-0.2,1.4
		c0,0.3-0.1,0.5-0.1,0.8c-0.1,0.6-0.2,1.1-0.3,1.7c0,0.2-0.1,0.3-0.1,0.5c-0.1,0.7-0.3,1.3-0.5,2c0,0.1,0,0.1-0.1,0.2
		c-2.3,8.7-6.8,16.5-13,22.7c0,0,0,0,0,0c-0.6,0.6-1.1,1.1-1.7,1.6c0,0,0,0,0,0c-0.6,0.5-1.2,1.1-1.8,1.6c0,0,0,0,0,0
		c-0.6,0.5-1.2,1-1.9,1.5c0,0,0,0,0,0c-0.6,0.5-1.3,0.9-1.9,1.4c0,0,0,0-0.1,0c-0.6,0.4-1.3,0.8-1.9,1.2c0,0-0.1,0.1-0.1,0.1
		c-0.6,0.4-1.3,0.7-1.9,1.1c-0.1,0-0.2,0.1-0.2,0.1c-0.6,0.3-1.2,0.6-1.9,0.9c-0.1,0.1-0.2,0.1-0.4,0.2c-0.6,0.3-1.2,0.5-1.8,0.8
		c-0.2,0.1-0.3,0.1-0.5,0.2c-0.5,0.2-1.1,0.4-1.6,0.7c-0.2,0.1-0.4,0.2-0.7,0.2c-0.5,0.2-1,0.4-1.6,0.5c-0.3,0.1-0.5,0.2-0.8,0.3
		c-0.5,0.1-1,0.3-1.5,0.4c-0.3,0.1-0.6,0.2-0.9,0.2c-0.5,0.1-0.9,0.2-1.4,0.3c-0.3,0.1-0.7,0.1-1,0.2c-0.5,0.1-0.9,0.2-1.4,0.2
		c-0.3,0.1-0.7,0.1-1,0.2c-0.5,0.1-0.9,0.1-1.4,0.2c-0.1,0-0.2,0-0.3,0c0.2,0,0.5,0.1,0.7,0.1c0.5,0.1,1,0.1,1.6,0.1
		c0.3,0,0.6,0,0.9,0.1c0.8,0,1.6,0.1,2.5,0.1c0.8,0,1.6,0,2.5-0.1c0.3,0,0.6,0,0.9-0.1c0.5,0,1-0.1,1.6-0.1c0.3,0,0.7-0.1,1-0.1
		c0.5-0.1,0.9-0.1,1.4-0.2c0.3-0.1,0.7-0.1,1-0.2c0.5-0.1,0.9-0.2,1.4-0.2c0.3-0.1,0.7-0.1,1-0.2c0.5-0.1,0.9-0.2,1.4-0.3
		c0.3-0.1,0.6-0.2,0.9-0.2c0.5-0.1,1-0.3,1.5-0.4c0.3-0.1,0.5-0.2,0.8-0.3c0.5-0.2,1-0.3,1.6-0.5c0.2-0.1,0.4-0.2,0.7-0.2
		c0.5-0.2,1.1-0.4,1.6-0.7c0.2-0.1,0.3-0.1,0.5-0.2c0.6-0.3,1.2-0.5,1.8-0.8c0.1-0.1,0.2-0.1,0.4-0.2c0.6-0.3,1.2-0.6,1.9-0.9
		c0.1,0,0.2-0.1,0.2-0.1c0.6-0.4,1.3-0.7,1.9-1.1c0,0,0.1-0.1,0.1-0.1c0.7-0.4,1.3-0.8,1.9-1.2c0,0,0,0,0.1,0
		c0.6-0.4,1.3-0.9,1.9-1.4l0,0c0.6-0.5,1.3-1,1.9-1.5c0,0,0,0,0,0c0.6-0.5,1.2-1,1.8-1.6c0,0,0,0,0,0c0.6-0.5,1.2-1.1,1.7-1.6
		c0,0,0,0,0,0c6.2-6.2,10.7-14,13-22.7c0-0.1,0-0.1,0.1-0.2c0.2-0.6,0.3-1.3,0.5-2c0-0.2,0.1-0.3,0.1-0.5c0.1-0.5,0.2-1.1,0.3-1.7
		c0-0.3,0.1-0.5,0.1-0.8c0.1-0.4,0.1-0.9,0.2-1.4c0-0.4,0.1-0.8,0.1-1.1c0-0.3,0.1-0.7,0.1-1c0-0.5,0.1-1,0.1-1.5
		c0-0.8,0.1-1.6,0.1-2.4C305.9,255.2,305.9,254.4,305.9,253.5L305.9,253.5z"/>
</g>
</svg>
