<?xml version="1.0" encoding="utf-8"?>
<!-- Generator: Adobe Illustrator 21.1.0, SVG Export Plug-In . SVG Version: 6.00 Build 0)  -->
<svg version="1.1" id="圖層_1" xmlns="http://www.w3.org/2000/svg" xmlns:xlink="http://www.w3.org/1999/xlink" x="0px" y="0px"
	 viewBox="0 0 1026 512.9" style="enable-background:new 0 0 1026 512.9;" xml:space="preserve">
<style type="text/css">
	.st0{fill:#FF7761;}
	.st1{fill:#FFFFFF;}
</style>
<path class="st0" d="M433.3,512.9H80.4c-27.7,0-53.5-14.4-68-37.9c-14.6-23.6-15.9-53-3.5-77.8L185.3,44.3
	C198.9,17.1,226.6,0,256.9,0s58,17.1,71.6,44.3l176.4,352.9c12.4,24.8,11.1,54.2-3.5,77.8C486.8,498.6,461.1,512.9,433.3,512.9z"/>
<g>
	<path class="st1" d="M256.9,128.2c8.8,0,16,7.2,16,16v192c0,8.8-7.2,16-16,16s-16-7.2-16-16v-192
		C240.9,135.4,248.1,128.2,256.9,128.2z"/>
	<path class="st1" d="M240.9,384.2h32v32h-32V384.2z"/>
</g>
<g>
	<path class="st1" d="M667.3,304.3c15.8,0,18.1-3.3,20.5-25.1c5.8,3.6,16.6,7.6,23.2,8.8c-3.9,30.5-12,39.1-42.4,39.1h-48.9
		c-33.5,0-43.4-6.8-43.4-33.5V223h23.8v18.9h65.8v-29.2h-94.8V190h118.8v81.6h-24v-7.1h-65.8v29c0,9.8,2.2,10.7,19.7,10.7H667.3z"/>
	<path class="st1" d="M770.5,302.9c8.2,2.4,17.8,2.8,29.5,2.8c14.5,0.2,53.5,0.2,70.4-0.8c-3.5,5.2-7.3,15.8-8.7,22.7h-61.9
		c-27.5,0-46.2-3.3-58.9-19.3c-1.6,8.7-3.6,16.4-6.5,22.9c-3.8-2.7-13.4-7.7-18.3-9.6c7.6-15.6,8.7-41.3,8.7-67.9l19.9,1.3
		c0,7.3-0.3,14.4-0.6,21.1c1.7,5,3.8,9.2,6.2,12.6v-41.2h-29.2v-20h25.7v-11.7h-21.9v-19.7h21.9v-14.4h21v14.4H789v19.7h-21.1v11.7
		h23.7v2.1c8.4-5.7,13.4-13.6,15.9-23.7h-13.9V187h70.2c0,0,0,5-0.2,7.4c-0.9,25.4-2.4,37.1-6.2,41.8c-3.3,3.9-7.1,5.4-11.5,6.2
		c-4.1,0.6-10.6,0.8-17.7,0.6c-0.3-5.8-2.5-14-5.5-19.1c-4.4,9.2-10.7,16.3-18.8,21.8c-2.5-2.5-7.9-6.8-12.5-9.9v11.8h-21v14.2h18.8
		v19.7h-18.8V302.9z M797,247.6h63v50.5h-63V247.6z M818.3,280h18.9v-14.2h-18.9V280z M828.9,206c-1.4,6.6-3.5,12.6-6.2,18
		c4.9,0.5,9,0.5,11.4,0.5c1.9,0,3.3-0.3,4.6-1.6c1.3-1.7,2.1-6.3,2.7-16.9H828.9z"/>
	<path class="st1" d="M933.5,301.3h-30.9V316h-21.1V191h52.1V301.3z M902.6,211.3v23.8h9.6v-23.8H902.6z M912.2,280.9V255h-9.6v25.9
		H912.2z M992.4,217.3v11.8h29.7v19.7h-10.3v9.5h13.4v19.9h-13.4v30c0,10.4-1.9,16.1-8.8,19.4c-6.9,3.3-15.8,3.8-27.1,3.8
		c-0.8-6.3-4.1-15.5-7.1-21.5c6.6,0.3,15.1,0.3,17.5,0.3s3.2-0.5,3.2-2.5v-29.5h-53v-19.9h53v-9.5h-49.1v-19.7h29.5v-11.8h-33.5v-20
		h33.5v-15.8h22.6v15.8h33.6v20H992.4z M959.9,278.4c5.7,7.4,14,18,18.1,24.6l-20.2,11.7c-3.5-6.6-11.4-17.8-17-26L959.9,278.4z"/>
</g>
</svg>
