<?xml version="1.0"?>
<svg xmlns="http://www.w3.org/2000/svg" xmlns:xlink="http://www.w3.org/1999/xlink" version="1.1" id="Capa_1" x="0px" y="0px" viewBox="0 0 512 512" style="enable-background:new 0 0 512 512;" xml:space="preserve" width="512px" height="512px" class=""><g><circle style="fill:#89B4E0" cx="256" cy="256" r="256" data-original="#E25F3F" class="" data-old_color="#8AB4E0"/><path style="fill:#7E9ED2" d="M511.923,249.949L316.842,54.867l-0.023,0.023c-16.415-15.622-38.622-25.21-63.069-25.21  c-49.021,0-89.036,38.55-91.389,86.987h-0.112c0,4.153,0,48.086,0,85.535l-12.684-12.684h-30v63.299  c0,37.539,15.501,71.52,40.432,95.895l-0.014,0.014l68.767,68.767v36.508h-34.5v30l25.422,25.422  C231.541,511.109,243.666,512,256,512c141.385,0,256-114.615,256-256C512,253.977,511.97,251.961,511.923,249.949z" data-original="#BF2717" class="active-path" data-old_color="#7F9ED2"/><rect x="228.75" y="372" style="fill:#8A8A91;" width="50" height="97" data-original="#8A8A91" class=""/><path style="fill:#57565C;" d="M253.75,342.654L253.75,342.654c-50.534,0-91.5-40.966-91.5-91.5V121.18  c0-50.534,40.966-91.5,91.5-91.5l0,0c50.534,0,91.5,40.966,91.5,91.5v129.974C345.25,301.688,304.284,342.654,253.75,342.654z" data-original="#57565C"/><path style="fill:#E1E1E3;" d="M253.75,387c-73.989,0-134.184-60.195-134.184-134.184v-63.299h30v63.299  C149.566,310.263,196.303,357,253.75,357s104.184-46.737,104.184-104.184v-63.299h30v63.299C387.934,326.805,327.739,387,253.75,387  z" data-original="#E1E1E3"/><path style="fill:#3E3E42;" d="M253.75,29.68L253.75,29.68v312.974l0,0c50.534,0,91.5-40.966,91.5-91.5V121.18  C345.25,70.646,304.284,29.68,253.75,29.68z" data-original="#3E3E42"/><rect x="253.75" y="372" style="fill:#797882;" width="25" height="97" data-original="#797882"/><path style="fill:#8A8A91;" d="M387.934,252.816v-63.299h-30v63.299C357.934,310.263,311.197,357,253.75,357v30  C327.739,387,387.934,326.805,387.934,252.816z" data-original="#8A8A91" class=""/><g>
	<rect x="162.25" y="173.83" style="fill:#3E3E42;" width="46.25" height="25" data-original="#3E3E42"/>
	<rect x="162.25" y="116.67" style="fill:#3E3E42;" width="46.25" height="25" data-original="#3E3E42"/>
	<rect x="162.25" y="231" style="fill:#3E3E42;" width="46.25" height="25" data-original="#3E3E42"/>
</g><g>
	<rect x="299.25" y="173.83" style="fill:#2D2E30" width="46.25" height="25" data-original="#2D2E30" class="" data-old_color=" rgb(45, 46, 48)"/>
	<rect x="299.25" y="116.67" style="fill:#2D2E30" width="46.25" height="25" data-original="#2D2E30" class="" data-old_color=" rgb(45, 46, 48)"/>
	<rect x="299.25" y="231" style="fill:#2D2E30" width="46.25" height="25" data-original="#2D2E30" class="" data-old_color=" rgb(45, 46, 48)"/>
</g><rect x="194.25" y="454" style="fill:#E1E1E3;" width="119" height="30" data-original="#E1E1E3"/><rect x="253.75" y="454" style="fill:#8A8A91;" width="59.5" height="30" data-original="#8A8A91" class=""/></g> </svg>
